<svg xmlns="http://www.w3.org/2000/svg" xmlns:xlink="http://www.w3.org/1999/xlink" width="500" zoomAndPan="magnify" viewBox="0 0 375 374.999991" height="500" preserveAspectRatio="xMidYMid meet" version="1.0"><defs><g/><clipPath id="3858020f11"><path d="M 37.5 150 L 112.5 150 L 112.5 225 L 37.5 225 Z M 37.5 150 " clip-rule="nonzero"/></clipPath><clipPath id="badfa77784"><path d="M 92.601562 194.25 L 102.351562 199.984375 C 103.410156 200.601562 103.765625 201.925781 103.148438 202.984375 C 99.96875 208.324219 95.515625 212.734375 90.21875 215.824219 C 85.058594 218.78125 79.058594 220.457031 72.707031 220.457031 C 72.265625 220.457031 71.691406 220.457031 71.03125 220.410156 L 70.941406 220.410156 C 70.28125 221.78125 69.21875 222.882812 67.941406 223.632812 C 66.265625 224.601562 64.234375 224.910156 62.25 224.382812 C 60.21875 223.851562 58.632812 222.53125 57.660156 220.898438 C 56.691406 219.21875 56.382812 217.191406 56.910156 215.160156 C 57.441406 213.175781 58.765625 211.542969 60.398438 210.617188 C 62.074219 209.648438 64.148438 209.292969 66.132812 209.824219 C 68.117188 210.398438 69.75 211.675781 70.71875 213.351562 C 71.160156 214.148438 71.46875 215.074219 71.648438 216 C 71.957031 216 72.308594 216.042969 72.707031 216.042969 C 78.265625 216.042969 83.515625 214.542969 88.015625 211.984375 C 92.03125 209.648438 95.515625 206.46875 98.160156 202.632812 L 90.398438 198.089844 C 89.734375 199.015625 88.984375 199.851562 88.191406 200.691406 C 84.21875 204.617188 78.75 207.089844 72.707031 207.089844 C 66.707031 207.089844 61.234375 204.617188 57.265625 200.691406 C 56.425781 199.808594 55.589844 198.839844 54.882812 197.824219 L 45.042969 203.339844 C 43.984375 203.957031 42.617188 203.558594 42.042969 202.5 L 42 202.5 C 40.542969 199.808594 39.398438 196.984375 38.648438 194.074219 C 37.898438 191.207031 37.5 188.25 37.5 185.207031 C 37.5 181.5 38.074219 177.925781 39.132812 174.574219 C 40.101562 171.53125 41.46875 168.707031 43.148438 166.101562 C 42.265625 164.824219 41.867188 163.367188 41.867188 161.867188 C 41.867188 159.96875 42.574219 158.03125 44.074219 156.574219 C 45.53125 155.074219 47.46875 154.367188 49.367188 154.367188 C 51.308594 154.367188 53.25 155.074219 54.707031 156.574219 C 56.160156 158.03125 56.910156 159.96875 56.910156 161.867188 C 56.910156 163.808594 56.160156 165.75 54.707031 167.207031 C 53.25 168.660156 51.308594 169.410156 49.367188 169.410156 C 48.441406 169.410156 47.515625 169.234375 46.632812 168.882812 C 45.265625 171.042969 44.160156 173.425781 43.367188 175.898438 C 42.441406 178.851562 41.910156 181.984375 41.910156 185.207031 C 41.910156 187.898438 42.265625 190.5 42.925781 192.96875 C 43.410156 194.824219 44.074219 196.632812 44.867188 198.351562 L 52.71875 193.984375 C 51.53125 191.292969 50.867188 188.339844 50.867188 185.207031 C 50.867188 179.207031 53.339844 173.734375 57.265625 169.765625 C 60.75 166.324219 65.382812 164.03125 70.5 163.5 L 70.5 152.207031 C 70.5 150.96875 71.515625 150 72.707031 150 C 79.675781 150 86.207031 152.03125 91.675781 155.558594 C 96.925781 158.910156 101.25 163.589844 104.074219 169.191406 C 105.617188 169.058594 107.117188 169.410156 108.351562 170.160156 L 108.398438 170.160156 C 110.03125 171.132812 111.351562 172.71875 111.882812 174.75 C 112.410156 176.734375 112.101562 178.765625 111.132812 180.441406 C 110.160156 182.117188 108.574219 183.441406 106.542969 183.96875 C 104.558594 184.5 102.53125 184.148438 100.851562 183.21875 L 100.851562 183.175781 L 100.851562 183.21875 C 99.175781 182.25 97.898438 180.617188 97.324219 178.632812 C 96.792969 176.648438 97.148438 174.617188 98.117188 172.941406 L 98.117188 172.898438 C 98.558594 172.101562 99.175781 171.351562 99.925781 170.78125 C 97.457031 166.101562 93.75 162.132812 89.292969 159.265625 C 85.101562 156.574219 80.207031 154.898438 74.957031 154.5 L 74.957031 163.5 C 80.074219 164.03125 84.707031 166.324219 88.191406 169.765625 C 92.117188 173.734375 94.589844 179.207031 94.589844 185.207031 C 94.589844 188.46875 93.882812 191.515625 92.601562 194.25 Z M 85.058594 172.898438 C 81.882812 169.765625 77.515625 167.824219 72.707031 167.824219 C 67.941406 167.824219 63.574219 169.765625 60.398438 172.898438 C 57.265625 176.074219 55.324219 180.441406 55.324219 185.207031 C 55.324219 190.015625 57.265625 194.382812 60.398438 197.558594 C 63.574219 200.691406 67.941406 202.632812 72.707031 202.632812 C 77.515625 202.632812 81.882812 200.691406 85.058594 197.558594 C 88.191406 194.382812 90.132812 190.015625 90.132812 185.207031 C 90.132812 180.441406 88.191406 176.074219 85.058594 172.898438 Z M 72.707031 176.292969 C 75.175781 176.292969 77.425781 177.308594 79.015625 178.941406 C 80.648438 180.53125 81.660156 182.78125 81.660156 185.207031 C 81.660156 187.675781 80.648438 189.925781 79.015625 191.515625 C 77.425781 193.148438 75.175781 194.160156 72.707031 194.160156 C 70.28125 194.160156 68.03125 193.148438 66.441406 191.515625 C 64.808594 189.925781 63.792969 187.675781 63.792969 185.207031 C 63.792969 182.78125 64.808594 180.53125 66.441406 178.941406 C 68.03125 177.308594 70.28125 176.292969 72.707031 176.292969 Z M 75.882812 182.074219 C 75.089844 181.234375 73.984375 180.75 72.707031 180.75 C 71.46875 180.75 70.367188 181.234375 69.574219 182.074219 C 68.734375 182.867188 68.25 183.96875 68.25 185.207031 C 68.25 186.484375 68.734375 187.589844 69.574219 188.382812 C 70.367188 189.21875 71.46875 189.707031 72.707031 189.707031 C 73.984375 189.707031 75.089844 189.21875 75.882812 188.382812 C 76.71875 187.589844 77.207031 186.484375 77.207031 185.207031 C 77.207031 183.96875 76.71875 182.867188 75.882812 182.074219 Z M 49.367188 158.78125 C 48.574219 158.78125 47.78125 159.089844 47.207031 159.707031 C 46.589844 160.28125 46.28125 161.074219 46.28125 161.867188 C 46.28125 162.660156 46.589844 163.457031 47.207031 164.074219 C 47.78125 164.691406 48.574219 165 49.367188 165 C 50.160156 165 50.957031 164.691406 51.574219 164.074219 C 52.191406 163.457031 52.5 162.660156 52.5 161.867188 C 52.5 161.074219 52.191406 160.28125 51.574219 159.707031 C 50.957031 159.089844 50.160156 158.78125 49.367188 158.78125 Z M 61.5 218.648438 C 61.898438 219.351562 62.558594 219.882812 63.398438 220.101562 C 64.191406 220.324219 65.03125 220.191406 65.734375 219.792969 C 66.441406 219.398438 66.96875 218.734375 67.191406 217.941406 C 67.410156 217.101562 67.28125 216.265625 66.882812 215.558594 C 66.484375 214.898438 65.824219 214.324219 64.984375 214.101562 C 64.148438 213.882812 63.308594 214.015625 62.648438 214.410156 C 61.941406 214.808594 61.410156 215.46875 61.191406 216.308594 C 60.96875 217.148438 61.101562 217.984375 61.5 218.648438 Z M 107.292969 178.234375 C 107.691406 177.53125 107.824219 176.691406 107.601562 175.898438 C 107.382812 175.058594 106.851562 174.398438 106.148438 174 C 105.484375 173.601562 104.648438 173.46875 103.808594 173.691406 C 102.96875 173.910156 102.308594 174.441406 101.910156 175.148438 C 101.515625 175.808594 101.382812 176.648438 101.601562 177.484375 C 101.824219 178.324219 102.398438 178.984375 103.058594 179.382812 C 103.765625 179.78125 104.601562 179.910156 105.441406 179.691406 C 106.234375 179.46875 106.898438 178.941406 107.292969 178.234375 Z M 107.292969 178.234375 " clip-rule="nonzero"/></clipPath><linearGradient x1="5.467643" gradientTransform="matrix(4.411764, 0, 0, 4.411764, 37.500004, 149.999996)" y1="18.393141" x2="10.644645" gradientUnits="userSpaceOnUse" y2="-1.637405" id="92dd5eec84"><stop stop-opacity="1" stop-color="rgb(2.119446%, 33.087158%, 70.903015%)" offset="0"/><stop stop-opacity="1" stop-color="rgb(2.285767%, 33.407593%, 71.147156%)" offset="0.00390625"/><stop stop-opacity="1" stop-color="rgb(2.453613%, 33.728027%, 71.391296%)" offset="0.0078125"/><stop stop-opacity="1" stop-color="rgb(2.619934%, 34.048462%, 71.633911%)" offset="0.0117188"/><stop stop-opacity="1" stop-color="rgb(2.786255%, 34.370422%, 71.878052%)" offset="0.015625"/><stop stop-opacity="1" stop-color="rgb(2.952576%, 34.690857%, 72.120667%)" offset="0.0195313"/><stop stop-opacity="1" stop-color="rgb(3.118896%, 35.011292%, 72.364807%)" offset="0.0234375"/><stop stop-opacity="1" stop-color="rgb(3.285217%, 35.331726%, 72.608948%)" offset="0.0273438"/><stop stop-opacity="1" stop-color="rgb(3.451538%, 35.653687%, 72.853088%)" offset="0.03125"/><stop stop-opacity="1" stop-color="rgb(3.617859%, 35.974121%, 73.095703%)" offset="0.0351562"/><stop stop-opacity="1" stop-color="rgb(3.78418%, 36.294556%, 73.339844%)" offset="0.0390625"/><stop stop-opacity="1" stop-color="rgb(3.9505%, 36.61499%, 73.582458%)" offset="0.0429688"/><stop stop-opacity="1" stop-color="rgb(4.118347%, 36.936951%, 73.826599%)" offset="0.046875"/><stop stop-opacity="1" stop-color="rgb(4.284668%, 37.257385%, 74.07074%)" offset="0.0507813"/><stop stop-opacity="1" stop-color="rgb(4.450989%, 37.57782%, 74.31488%)" offset="0.0546875"/><stop stop-opacity="1" stop-color="rgb(4.61731%, 37.898254%, 74.557495%)" offset="0.0585938"/><stop stop-opacity="1" stop-color="rgb(4.78363%, 38.220215%, 74.801636%)" offset="0.0625"/><stop stop-opacity="1" stop-color="rgb(4.949951%, 38.540649%, 75.04425%)" offset="0.0664063"/><stop stop-opacity="1" stop-color="rgb(5.116272%, 38.861084%, 75.288391%)" offset="0.0703125"/><stop stop-opacity="1" stop-color="rgb(5.282593%, 39.181519%, 75.532532%)" offset="0.0742188"/><stop stop-opacity="1" stop-color="rgb(5.448914%, 39.503479%, 75.776672%)" offset="0.078125"/><stop stop-opacity="1" stop-color="rgb(5.615234%, 39.823914%, 76.019287%)" offset="0.0820313"/><stop stop-opacity="1" stop-color="rgb(5.781555%, 40.144348%, 76.263428%)" offset="0.0859375"/><stop stop-opacity="1" stop-color="rgb(5.947876%, 40.464783%, 76.506042%)" offset="0.0898438"/><stop stop-opacity="1" stop-color="rgb(6.115723%, 40.786743%, 76.750183%)" offset="0.09375"/><stop stop-opacity="1" stop-color="rgb(6.282043%, 41.107178%, 76.994324%)" offset="0.0976562"/><stop stop-opacity="1" stop-color="rgb(6.448364%, 41.427612%, 77.238464%)" offset="0.101563"/><stop stop-opacity="1" stop-color="rgb(6.614685%, 41.748047%, 77.481079%)" offset="0.105469"/><stop stop-opacity="1" stop-color="rgb(6.781006%, 42.070007%, 77.72522%)" offset="0.109375"/><stop stop-opacity="1" stop-color="rgb(6.947327%, 42.390442%, 77.967834%)" offset="0.113281"/><stop stop-opacity="1" stop-color="rgb(7.113647%, 42.710876%, 78.211975%)" offset="0.117188"/><stop stop-opacity="1" stop-color="rgb(7.279968%, 43.031311%, 78.456116%)" offset="0.121094"/><stop stop-opacity="1" stop-color="rgb(7.446289%, 43.353271%, 78.700256%)" offset="0.125"/><stop stop-opacity="1" stop-color="rgb(7.61261%, 43.673706%, 78.942871%)" offset="0.128906"/><stop stop-opacity="1" stop-color="rgb(7.780457%, 43.994141%, 79.187012%)" offset="0.132812"/><stop stop-opacity="1" stop-color="rgb(7.946777%, 44.314575%, 79.429626%)" offset="0.136719"/><stop stop-opacity="1" stop-color="rgb(8.113098%, 44.636536%, 79.673767%)" offset="0.140625"/><stop stop-opacity="1" stop-color="rgb(8.279419%, 44.95697%, 79.917908%)" offset="0.144531"/><stop stop-opacity="1" stop-color="rgb(8.44574%, 45.277405%, 80.162048%)" offset="0.148438"/><stop stop-opacity="1" stop-color="rgb(8.612061%, 45.597839%, 80.404663%)" offset="0.152344"/><stop stop-opacity="1" stop-color="rgb(8.778381%, 45.9198%, 80.648804%)" offset="0.15625"/><stop stop-opacity="1" stop-color="rgb(8.944702%, 46.240234%, 80.892944%)" offset="0.160156"/><stop stop-opacity="1" stop-color="rgb(9.111023%, 46.560669%, 81.137085%)" offset="0.164063"/><stop stop-opacity="1" stop-color="rgb(9.277344%, 46.881104%, 81.3797%)" offset="0.167969"/><stop stop-opacity="1" stop-color="rgb(9.44519%, 47.203064%, 81.62384%)" offset="0.171875"/><stop stop-opacity="1" stop-color="rgb(9.611511%, 47.523499%, 81.866455%)" offset="0.175781"/><stop stop-opacity="1" stop-color="rgb(9.777832%, 47.843933%, 82.110596%)" offset="0.179688"/><stop stop-opacity="1" stop-color="rgb(9.944153%, 48.164368%, 82.354736%)" offset="0.183594"/><stop stop-opacity="1" stop-color="rgb(10.110474%, 48.486328%, 82.598877%)" offset="0.1875"/><stop stop-opacity="1" stop-color="rgb(10.276794%, 48.806763%, 82.841492%)" offset="0.191406"/><stop stop-opacity="1" stop-color="rgb(10.443115%, 49.127197%, 83.085632%)" offset="0.195313"/><stop stop-opacity="1" stop-color="rgb(10.609436%, 49.447632%, 83.328247%)" offset="0.199219"/><stop stop-opacity="1" stop-color="rgb(10.775757%, 49.769592%, 83.572388%)" offset="0.203125"/><stop stop-opacity="1" stop-color="rgb(10.942078%, 50.090027%, 83.816528%)" offset="0.207031"/><stop stop-opacity="1" stop-color="rgb(11.108398%, 50.410461%, 84.060669%)" offset="0.210938"/><stop stop-opacity="1" stop-color="rgb(11.274719%, 50.730896%, 84.303284%)" offset="0.214844"/><stop stop-opacity="1" stop-color="rgb(11.442566%, 51.052856%, 84.547424%)" offset="0.21875"/><stop stop-opacity="1" stop-color="rgb(11.608887%, 51.373291%, 84.790039%)" offset="0.222656"/><stop stop-opacity="1" stop-color="rgb(11.775208%, 51.693726%, 85.03418%)" offset="0.226563"/><stop stop-opacity="1" stop-color="rgb(11.941528%, 52.01416%, 85.27832%)" offset="0.230469"/><stop stop-opacity="1" stop-color="rgb(12.107849%, 52.336121%, 85.522461%)" offset="0.234375"/><stop stop-opacity="1" stop-color="rgb(12.27417%, 52.656555%, 85.765076%)" offset="0.238281"/><stop stop-opacity="1" stop-color="rgb(12.440491%, 52.97699%, 86.009216%)" offset="0.242188"/><stop stop-opacity="1" stop-color="rgb(12.606812%, 53.297424%, 86.251831%)" offset="0.246094"/><stop stop-opacity="1" stop-color="rgb(12.773132%, 53.619385%, 86.495972%)" offset="0.25"/><stop stop-opacity="1" stop-color="rgb(12.939453%, 53.939819%, 86.740112%)" offset="0.253906"/><stop stop-opacity="1" stop-color="rgb(13.1073%, 54.260254%, 86.984253%)" offset="0.257812"/><stop stop-opacity="1" stop-color="rgb(13.273621%, 54.580688%, 87.226868%)" offset="0.261719"/><stop stop-opacity="1" stop-color="rgb(13.439941%, 54.902649%, 87.471008%)" offset="0.265625"/><stop stop-opacity="1" stop-color="rgb(13.606262%, 55.223083%, 87.713623%)" offset="0.269531"/><stop stop-opacity="1" stop-color="rgb(13.772583%, 55.543518%, 87.957764%)" offset="0.273438"/><stop stop-opacity="1" stop-color="rgb(13.938904%, 55.863953%, 88.201904%)" offset="0.277344"/><stop stop-opacity="1" stop-color="rgb(14.105225%, 56.185913%, 88.446045%)" offset="0.28125"/><stop stop-opacity="1" stop-color="rgb(14.271545%, 56.506348%, 88.68866%)" offset="0.285156"/><stop stop-opacity="1" stop-color="rgb(14.437866%, 56.826782%, 88.9328%)" offset="0.289062"/><stop stop-opacity="1" stop-color="rgb(14.604187%, 57.147217%, 89.175415%)" offset="0.292969"/><stop stop-opacity="1" stop-color="rgb(14.772034%, 57.469177%, 89.419556%)" offset="0.296875"/><stop stop-opacity="1" stop-color="rgb(14.938354%, 57.789612%, 89.663696%)" offset="0.300781"/><stop stop-opacity="1" stop-color="rgb(15.104675%, 58.110046%, 89.907837%)" offset="0.304688"/><stop stop-opacity="1" stop-color="rgb(15.270996%, 58.430481%, 90.150452%)" offset="0.308594"/><stop stop-opacity="1" stop-color="rgb(15.437317%, 58.752441%, 90.394592%)" offset="0.3125"/><stop stop-opacity="1" stop-color="rgb(15.603638%, 59.072876%, 90.637207%)" offset="0.316406"/><stop stop-opacity="1" stop-color="rgb(15.769958%, 59.393311%, 90.881348%)" offset="0.320312"/><stop stop-opacity="1" stop-color="rgb(15.936279%, 59.713745%, 91.125488%)" offset="0.324219"/><stop stop-opacity="1" stop-color="rgb(16.1026%, 60.035706%, 91.369629%)" offset="0.328125"/><stop stop-opacity="1" stop-color="rgb(16.268921%, 60.35614%, 91.612244%)" offset="0.332031"/><stop stop-opacity="1" stop-color="rgb(16.435242%, 60.676575%, 91.856384%)" offset="0.335938"/><stop stop-opacity="1" stop-color="rgb(16.601562%, 60.997009%, 92.100525%)" offset="0.339844"/><stop stop-opacity="1" stop-color="rgb(16.769409%, 61.31897%, 92.344666%)" offset="0.34375"/><stop stop-opacity="1" stop-color="rgb(16.93573%, 61.639404%, 92.58728%)" offset="0.347656"/><stop stop-opacity="1" stop-color="rgb(17.102051%, 61.959839%, 92.831421%)" offset="0.351562"/><stop stop-opacity="1" stop-color="rgb(17.268372%, 62.280273%, 93.074036%)" offset="0.355469"/><stop stop-opacity="1" stop-color="rgb(17.434692%, 62.602234%, 93.318176%)" offset="0.359375"/><stop stop-opacity="1" stop-color="rgb(17.601013%, 62.922668%, 93.562317%)" offset="0.363281"/><stop stop-opacity="1" stop-color="rgb(17.767334%, 63.243103%, 93.806458%)" offset="0.367188"/><stop stop-opacity="1" stop-color="rgb(17.933655%, 63.563538%, 94.049072%)" offset="0.371094"/><stop stop-opacity="1" stop-color="rgb(18.099976%, 63.885498%, 94.293213%)" offset="0.375"/><stop stop-opacity="1" stop-color="rgb(18.266296%, 64.205933%, 94.535828%)" offset="0.378906"/><stop stop-opacity="1" stop-color="rgb(18.434143%, 64.527893%, 94.779968%)" offset="0.382813"/><stop stop-opacity="1" stop-color="rgb(18.600464%, 64.848328%, 95.024109%)" offset="0.386719"/><stop stop-opacity="1" stop-color="rgb(18.766785%, 65.168762%, 95.26825%)" offset="0.390625"/><stop stop-opacity="1" stop-color="rgb(18.933105%, 65.489197%, 95.510864%)" offset="0.394531"/><stop stop-opacity="1" stop-color="rgb(19.099426%, 65.811157%, 95.755005%)" offset="0.398438"/><stop stop-opacity="1" stop-color="rgb(19.265747%, 66.131592%, 95.99762%)" offset="0.402344"/><stop stop-opacity="1" stop-color="rgb(19.432068%, 66.452026%, 96.24176%)" offset="0.40625"/><stop stop-opacity="1" stop-color="rgb(19.598389%, 66.772461%, 96.485901%)" offset="0.410156"/><stop stop-opacity="1" stop-color="rgb(19.764709%, 67.094421%, 96.730042%)" offset="0.414062"/><stop stop-opacity="1" stop-color="rgb(19.93103%, 67.414856%, 96.972656%)" offset="0.417969"/><stop stop-opacity="1" stop-color="rgb(20.098877%, 67.735291%, 97.216797%)" offset="0.421875"/><stop stop-opacity="1" stop-color="rgb(20.265198%, 68.055725%, 97.459412%)" offset="0.425781"/><stop stop-opacity="1" stop-color="rgb(20.431519%, 68.377686%, 97.703552%)" offset="0.429688"/><stop stop-opacity="1" stop-color="rgb(20.597839%, 68.69812%, 97.947693%)" offset="0.433594"/><stop stop-opacity="1" stop-color="rgb(20.76416%, 69.018555%, 98.191833%)" offset="0.4375"/><stop stop-opacity="1" stop-color="rgb(20.930481%, 69.338989%, 98.434448%)" offset="0.441406"/><stop stop-opacity="1" stop-color="rgb(21.096802%, 69.66095%, 98.678589%)" offset="0.445312"/><stop stop-opacity="1" stop-color="rgb(21.263123%, 69.981384%, 98.921204%)" offset="0.449219"/><stop stop-opacity="1" stop-color="rgb(21.429443%, 70.301819%, 99.165344%)" offset="0.453125"/><stop stop-opacity="1" stop-color="rgb(21.595764%, 70.622253%, 99.409485%)" offset="0.457031"/><stop stop-opacity="1" stop-color="rgb(21.762085%, 70.944214%, 99.653625%)" offset="0.460938"/><stop stop-opacity="1" stop-color="rgb(21.914673%, 71.211243%, 99.803162%)" offset="0.464844"/><stop stop-opacity="1" stop-color="rgb(22.067261%, 71.479797%, 99.952698%)" offset="0.46875"/><stop stop-opacity="1" stop-color="rgb(22.183228%, 71.618652%, 99.871826%)" offset="0.476563"/><stop stop-opacity="1" stop-color="rgb(22.415161%, 71.896362%, 99.708557%)" offset="0.484375"/><stop stop-opacity="1" stop-color="rgb(22.648621%, 72.174072%, 99.546814%)" offset="0.492188"/><stop stop-opacity="1" stop-color="rgb(22.88208%, 72.451782%, 99.385071%)" offset="0.5"/><stop stop-opacity="1" stop-color="rgb(23.11554%, 72.729492%, 99.223328%)" offset="0.507812"/><stop stop-opacity="1" stop-color="rgb(23.347473%, 73.007202%, 99.061584%)" offset="0.515625"/><stop stop-opacity="1" stop-color="rgb(23.580933%, 73.284912%, 98.899841%)" offset="0.523438"/><stop stop-opacity="1" stop-color="rgb(23.814392%, 73.562622%, 98.738098%)" offset="0.53125"/><stop stop-opacity="1" stop-color="rgb(24.046326%, 73.840332%, 98.574829%)" offset="0.539063"/><stop stop-opacity="1" stop-color="rgb(24.279785%, 74.116516%, 98.413086%)" offset="0.546875"/><stop stop-opacity="1" stop-color="rgb(24.513245%, 74.394226%, 98.251343%)" offset="0.554688"/><stop stop-opacity="1" stop-color="rgb(24.746704%, 74.671936%, 98.0896%)" offset="0.5625"/><stop stop-opacity="1" stop-color="rgb(24.978638%, 74.949646%, 97.927856%)" offset="0.570313"/><stop stop-opacity="1" stop-color="rgb(25.212097%, 75.227356%, 97.766113%)" offset="0.578125"/><stop stop-opacity="1" stop-color="rgb(25.445557%, 75.505066%, 97.60437%)" offset="0.585938"/><stop stop-opacity="1" stop-color="rgb(25.67749%, 75.782776%, 97.442627%)" offset="0.59375"/><stop stop-opacity="1" stop-color="rgb(25.91095%, 76.060486%, 97.279358%)" offset="0.601562"/><stop stop-opacity="1" stop-color="rgb(26.144409%, 76.338196%, 97.117615%)" offset="0.609375"/><stop stop-opacity="1" stop-color="rgb(26.376343%, 76.615906%, 96.955872%)" offset="0.617188"/><stop stop-opacity="1" stop-color="rgb(26.609802%, 76.893616%, 96.794128%)" offset="0.625"/><stop stop-opacity="1" stop-color="rgb(26.843262%, 77.171326%, 96.632385%)" offset="0.632813"/><stop stop-opacity="1" stop-color="rgb(27.076721%, 77.449036%, 96.470642%)" offset="0.640625"/><stop stop-opacity="1" stop-color="rgb(27.308655%, 77.726746%, 96.308899%)" offset="0.648438"/><stop stop-opacity="1" stop-color="rgb(27.542114%, 78.004456%, 96.14563%)" offset="0.65625"/><stop stop-opacity="1" stop-color="rgb(27.775574%, 78.282166%, 95.983887%)" offset="0.664063"/><stop stop-opacity="1" stop-color="rgb(28.007507%, 78.559875%, 95.822144%)" offset="0.671875"/><stop stop-opacity="1" stop-color="rgb(28.240967%, 78.837585%, 95.6604%)" offset="0.679688"/><stop stop-opacity="1" stop-color="rgb(28.474426%, 79.115295%, 95.498657%)" offset="0.6875"/><stop stop-opacity="1" stop-color="rgb(28.707886%, 79.393005%, 95.336914%)" offset="0.695313"/><stop stop-opacity="1" stop-color="rgb(28.939819%, 79.670715%, 95.175171%)" offset="0.703125"/><stop stop-opacity="1" stop-color="rgb(29.173279%, 79.946899%, 95.011902%)" offset="0.710938"/><stop stop-opacity="1" stop-color="rgb(29.406738%, 80.224609%, 94.850159%)" offset="0.71875"/><stop stop-opacity="1" stop-color="rgb(29.638672%, 80.502319%, 94.688416%)" offset="0.726563"/><stop stop-opacity="1" stop-color="rgb(29.872131%, 80.780029%, 94.526672%)" offset="0.734375"/><stop stop-opacity="1" stop-color="rgb(30.105591%, 81.057739%, 94.364929%)" offset="0.742188"/><stop stop-opacity="1" stop-color="rgb(30.33905%, 81.335449%, 94.203186%)" offset="0.75"/><stop stop-opacity="1" stop-color="rgb(30.570984%, 81.613159%, 94.041443%)" offset="0.757813"/><stop stop-opacity="1" stop-color="rgb(30.804443%, 81.890869%, 93.878174%)" offset="0.765625"/><stop stop-opacity="1" stop-color="rgb(31.037903%, 82.168579%, 93.716431%)" offset="0.773438"/><stop stop-opacity="1" stop-color="rgb(31.269836%, 82.446289%, 93.554688%)" offset="0.78125"/><stop stop-opacity="1" stop-color="rgb(31.503296%, 82.723999%, 93.392944%)" offset="0.789063"/><stop stop-opacity="1" stop-color="rgb(31.736755%, 83.001709%, 93.231201%)" offset="0.794625"/><stop stop-opacity="1" stop-color="rgb(31.854248%, 83.140564%, 93.15033%)" offset="0.796875"/><stop stop-opacity="1" stop-color="rgb(31.970215%, 83.279419%, 93.069458%)" offset="0.804688"/><stop stop-opacity="1" stop-color="rgb(32.202148%, 83.557129%, 92.907715%)" offset="0.8125"/><stop stop-opacity="1" stop-color="rgb(32.435608%, 83.834839%, 92.744446%)" offset="0.820313"/><stop stop-opacity="1" stop-color="rgb(32.669067%, 84.112549%, 92.582703%)" offset="0.828125"/><stop stop-opacity="1" stop-color="rgb(32.901001%, 84.390259%, 92.420959%)" offset="0.835938"/><stop stop-opacity="1" stop-color="rgb(33.13446%, 84.667969%, 92.259216%)" offset="0.84375"/><stop stop-opacity="1" stop-color="rgb(33.36792%, 84.945679%, 92.097473%)" offset="0.851563"/><stop stop-opacity="1" stop-color="rgb(33.601379%, 85.223389%, 91.93573%)" offset="0.859375"/><stop stop-opacity="1" stop-color="rgb(33.833313%, 85.501099%, 91.773987%)" offset="0.867188"/><stop stop-opacity="1" stop-color="rgb(34.066772%, 85.778809%, 91.610718%)" offset="0.875"/><stop stop-opacity="1" stop-color="rgb(34.300232%, 86.054993%, 91.448975%)" offset="0.882813"/><stop stop-opacity="1" stop-color="rgb(34.532166%, 86.332703%, 91.287231%)" offset="0.890625"/><stop stop-opacity="1" stop-color="rgb(34.765625%, 86.610413%, 91.125488%)" offset="0.898438"/><stop stop-opacity="1" stop-color="rgb(34.999084%, 86.888123%, 90.963745%)" offset="0.90625"/><stop stop-opacity="1" stop-color="rgb(35.231018%, 87.165833%, 90.802002%)" offset="0.914063"/><stop stop-opacity="1" stop-color="rgb(35.464478%, 87.443542%, 90.640259%)" offset="0.921875"/><stop stop-opacity="1" stop-color="rgb(35.697937%, 87.721252%, 90.478516%)" offset="0.929688"/><stop stop-opacity="1" stop-color="rgb(35.931396%, 87.998962%, 90.315247%)" offset="0.9375"/><stop stop-opacity="1" stop-color="rgb(36.073303%, 88.168335%, 90.216064%)" offset="1"/></linearGradient></defs><g clip-path="url(#3858020f11)"><g clip-path="url(#badfa77784)"><path fill="url(#92dd5eec84)" d="M 37.5 150 L 37.5 224.910156 L 112.410156 224.910156 L 112.410156 150 Z M 37.5 150 " fill-rule="nonzero"/></g></g><g fill="#004aad" fill-opacity="1"><g transform="translate(126.688552, 207.569326)"><g><path d="M 19.53125 0 L 13.53125 0 L 13.53125 -37.9375 C 12.132812 -38.269531 10.734375 -38.4375 9.328125 -38.4375 L 0.984375 -36.515625 L 0.625 -40.90625 L 32.4375 -40.90625 L 32.140625 -36.515625 L 23.734375 -38.4375 C 22.328125 -38.4375 20.925781 -38.269531 19.53125 -37.9375 Z M 19.53125 0 "/></g></g></g><g fill="#004aad" fill-opacity="1"><g transform="translate(168.215265, 207.569326)"><g><path d="M 5.5625 0 L 5.5625 -40.90625 L 30.34375 -40.90625 L 29.71875 -36.765625 L 18.234375 -38.6875 C 16.210938 -38.6875 13.988281 -38.335938 11.5625 -37.640625 L 11.5625 -22.625 L 25.28125 -22.625 L 25.28125 -20.265625 L 11.5625 -20.265625 L 11.5625 -2.21875 L 30.71875 -4.140625 L 30.09375 0 Z M 5.5625 0 "/></g></g></g><g fill="#004aad" fill-opacity="1"><g transform="translate(211.410377, 207.569326)"><g><path d="M 24.15625 -41.65625 C 29.519531 -41.65625 33.953125 -39.890625 37.453125 -36.359375 C 40.953125 -32.835938 42.703125 -27.945312 42.703125 -21.6875 C 42.703125 -17.65625 42 -14.125 40.59375 -11.09375 C 39.195312 -8.0625 37.363281 -5.722656 35.09375 -4.078125 C 30.6875 -0.867188 25.828125 0.734375 20.515625 0.734375 C 15.203125 0.734375 10.800781 -1.046875 7.3125 -4.609375 C 3.832031 -8.171875 2.09375 -13.082031 2.09375 -19.34375 C 2.09375 -22.59375 2.554688 -25.523438 3.484375 -28.140625 C 4.410156 -30.765625 5.625 -32.898438 7.125 -34.546875 C 8.632812 -36.191406 10.378906 -37.570312 12.359375 -38.6875 C 15.984375 -40.664062 19.914062 -41.65625 24.15625 -41.65625 Z M 11.734375 -7.046875 C 12.804688 -5.234375 14.25 -3.820312 16.0625 -2.8125 C 17.875 -1.800781 19.960938 -1.296875 22.328125 -1.296875 C 24.703125 -1.296875 26.816406 -1.890625 28.671875 -3.078125 C 30.523438 -4.273438 31.96875 -5.84375 33 -7.78125 C 35.101562 -11.65625 36.15625 -15.816406 36.15625 -20.265625 C 36.15625 -25.742188 35.0625 -30.15625 32.875 -33.5 C 30.445312 -37.25 26.429688 -39.125 20.828125 -39.125 C 16.828125 -37.71875 13.796875 -35.304688 11.734375 -31.890625 C 9.679688 -28.472656 8.65625 -24.597656 8.65625 -20.265625 C 8.65625 -14.992188 9.679688 -10.585938 11.734375 -7.046875 Z M 11.734375 -7.046875 "/></g></g></g><g fill="#004aad" fill-opacity="1"><g transform="translate(264.67774, 207.569326)"><g><path d="M 11.5625 -20.265625 L 11.5625 0 L 5.5625 0 L 5.5625 -40.90625 L 11.5625 -40.90625 L 11.5625 -22.625 L 30.28125 -22.625 L 30.28125 -40.90625 L 36.28125 -40.90625 L 36.28125 0 L 30.28125 0 L 30.28125 -20.265625 Z M 11.5625 -20.265625 "/></g></g></g></svg>